<svg width="90" height="90" viewBox="0 0 90 90" fill="none" xmlns="http://www.w3.org/2000/svg">
<rect width="90" height="90" fill="#F5F5F5"/>
<path fill-rule="evenodd" clip-rule="evenodd" d="M67.0707 73.6733L72.7631 67.9825L74.4711 75.3813L67.0707 73.6733ZM47.7002 55.0756L45.5457 52.9212L39.0807 46.4563L36.9263 44.3018L23.5895 30.9653L30.053 24.5004L43.3897 37.837L45.5457 39.9914L52.0091 46.4563L54.1636 48.6107L70.9941 65.441L64.5307 71.9059L47.7002 55.0756ZM26.3428 72.1222L21.237 74.3102L17.6899 70.7631L19.8794 65.6543L36.9247 48.6107L43.3897 55.0756L26.3428 72.1222ZM17.1154 24.4913C16.5304 23.9047 16.5319 22.9387 17.1246 22.3445L21.4335 18.0356C22.0323 17.4383 22.9892 17.4368 23.5804 18.0264L27.8985 22.3445L21.4335 28.8093L17.1154 24.4913ZM63.6378 21.8996L70.1028 28.3629L54.1636 44.3018L47.7002 37.8355L63.6378 21.8996ZM71.7209 17.0483C71.7255 17.0452 71.7133 17.0452 71.7255 17.0574L74.945 20.2769C74.9542 20.286 74.9542 20.2799 74.9542 20.2815L70.6422 24.5919L67.4104 21.3602L71.7209 17.0483ZM75.3046 65.441L56.3196 46.4563L68.9844 33.7917L70.1713 34.9801C70.7671 35.5759 70.7671 36.5404 70.1683 37.1391L64.1894 43.1164C63.5952 43.7122 63.5952 44.6767 64.1894 45.2709C64.7851 45.8666 65.7496 45.8666 66.3439 45.2709L72.3228 39.2951C74.1116 37.5063 74.1131 34.6114 72.3273 32.8257L71.1389 31.6372L72.2572 30.5174L74.4117 28.3629L72.7966 26.7478L77.1086 22.4359C78.3047 21.2368 78.2925 19.3155 77.0995 18.1209L73.88 14.9014C72.6747 13.6962 70.7549 13.7054 69.5664 14.8938L65.2544 19.2058L63.6378 17.5892L61.4833 19.7436H61.4818V19.7451L45.5457 35.681L25.7349 15.872C23.9507 14.0893 21.0648 14.0954 19.2791 15.8811L14.9701 20.19C13.1905 21.9697 13.1798 24.8661 14.961 26.6458L19.2791 30.9638L19.6905 31.3752L21.4335 33.1198L34.7703 46.4563L17.309 63.9174L14.0772 71.4594L16.2317 73.6139L13 76.8456L15.1545 79L18.3862 75.7683L20.5422 77.9228L28.0844 74.6911L45.5457 57.23L62.3747 74.0603L64.5292 76.2148L75.5667 78.7623C77.194 79.1371 78.2301 78.1163 77.8507 76.4768L75.3046 65.441Z" fill="#3C1BB3"/>
</svg>
