<svg width="90" height="90" viewBox="0 0 90 90" fill="none" xmlns="http://www.w3.org/2000/svg">
<rect width="90" height="90" fill="#F5F5F5"/>
<path fill-rule="evenodd" clip-rule="evenodd" d="M56.2628 17.219C56.6596 15.8965 55.9091 14.5028 54.5866 14.1061C53.2641 13.7093 51.8704 14.4598 51.4737 15.7823L34.4025 72.686C34.0058 74.0085 34.7563 75.4022 36.0787 75.799C37.4012 76.1957 38.7949 75.4453 39.1917 74.1228L56.2628 17.219ZM30.1429 23.39C31.0522 24.4291 30.9469 26.0085 29.9078 26.9177L9.29648 44.9525L29.9078 62.9874C30.9469 63.8966 31.0522 65.476 30.1429 66.5151C29.2337 67.5542 27.6543 67.6595 26.6152 66.7503L3.85374 46.834C3.3112 46.3593 3 45.6734 3 44.9525C3 44.2316 3.3112 43.5458 3.85374 43.0711L26.6152 23.1548C27.6543 22.2456 29.2337 22.3509 30.1429 23.39ZM60.5224 23.39C61.4316 22.3509 63.011 22.2456 64.0501 23.1548L86.8116 43.0711C87.3541 43.5458 87.6653 44.2316 87.6653 44.9525C87.6653 45.6734 87.3541 46.3593 86.8116 46.834L64.0501 66.7503C63.011 67.6595 61.4316 67.5542 60.5224 66.5151C59.6132 65.476 59.7185 63.8966 60.7575 62.9874L81.3688 44.9525L60.7575 26.9177C59.7185 26.0085 59.6132 24.4291 60.5224 23.39Z" fill="#3C1BB3"/>
</svg>
